<?xml version="1.0" encoding="UTF-8"?>
<svg id="Layer_2" data-name="Layer 2" xmlns="http://www.w3.org/2000/svg" viewBox="0 0 545.57 241">
  <defs>
    <style>
      .cls-1 {
        fill: #37180c;
      }
    </style>
  </defs>
  <g id="Layer_1-2" data-name="Layer 1">
    <g>
      <path class="cls-1" d="M167.33,210.1c-.25,1.17-.7,2.47-1.35,3.89-.65,1.42-1.32,2.76-2.01,4.02-.69,1.26-1.32,2.3-1.88,3.14-.56.84-.91,1.26-1.04,1.26-.75,0-1.84-.34-3.27-1.04-1.42-.69-2.86-1.54-4.3-2.54s-2.74-2.04-3.89-3.11c-1.15-1.07-1.85-1.98-2.1-2.73,0-.25.24-.95.72-2.1.48-1.15,1.05-2.41,1.7-3.77.65-1.36,1.32-2.65,2.01-3.86.69-1.21,1.27-2.03,1.73-2.45.67.79,1.54,1.64,2.61,2.54s2.23,1.78,3.49,2.64c1.26.86,2.53,1.65,3.83,2.39,1.3.73,2.55,1.31,3.77,1.73ZM171.47,220.28c.54.59,1.27,1.28,2.17,2.07.9.79,1.9,1.58,3.01,2.36,1.11.77,2.28,1.51,3.52,2.2,1.23.69,2.48,1.25,3.74,1.67-.38,1.3-.87,2.67-1.48,4.11-.61,1.45-1.22,2.77-1.85,3.99-.63,1.21-1.2,2.23-1.73,3.05s-.89,1.25-1.1,1.29c-.46,0-1.29-.29-2.48-.88-1.19-.59-2.44-1.33-3.74-2.23-1.3-.9-2.52-1.86-3.67-2.89-1.15-1.03-1.92-1.98-2.29-2.86.25-.88.64-1.94,1.16-3.17.52-1.24,1.08-2.46,1.66-3.67.59-1.21,1.16-2.29,1.73-3.23s1.01-1.54,1.35-1.79ZM187.68,205.95c-.96,2.3-1.8,4.23-2.51,5.78-.71,1.55-1.33,2.79-1.85,3.74-.52.94-.94,1.62-1.26,2.04-.31.42-.53.63-.66.63-.34,0-.86-.14-1.57-.41-.71-.27-1.51-.64-2.39-1.1s-1.81-1-2.79-1.6c-.98-.61-1.92-1.28-2.79-2.01-.88-.73-1.66-1.5-2.32-2.29-.67-.8-1.15-1.59-1.44-2.39,0-.29.21-.96.63-2.01s.93-2.21,1.54-3.49c.61-1.28,1.26-2.52,1.95-3.74.69-1.21,1.33-2.12,1.92-2.7,1.72,2.01,3.75,3.83,6.09,5.46,2.34,1.63,4.84,2.99,7.47,4.08Z"/>
      <path class="cls-1" d="M47.36,61.87c0,.29-.25.63-.75,1-6.91,4.82-12.87,9.71-17.87,14.7-5,4.98-9.14,10.05-12.41,15.2-3.27,5.15-5.67,10.36-7.22,15.64-1.55,5.28-2.32,10.62-2.32,16.02s.81,10.64,2.42,15.33c1.61,4.69,3.86,8.95,6.75,12.78,2.89,3.83,6.32,7.22,10.3,10.18,3.98,2.95,8.31,5.42,13,7.41,4.69,1.99,9.66,3.5,14.92,4.52,5.25,1.03,10.6,1.54,16.05,1.54,10.09,0,20.19-1.3,30.31-3.89,10.11-2.6,20.22-6.66,30.34-12.18,10.11-5.53,20.22-12.59,30.34-21.2,10.11-8.6,20.24-18.92,30.37-30.93,1.72-2.05,3.35-4.03,4.9-5.94,1.55-1.91,3.08-3.83,4.58-5.78s3.01-3.94,4.52-5.97c1.51-2.03,3.08-4.22,4.71-6.56.25-.33.46-.67.63-1.01s.42-.5.75-.5.52.21.56.63c.04.42.06.75.06,1,0,.38-.04,1.05-.13,2.01-.08.96-.17,1.97-.25,3.02-.13,1.09-.23,2.11-.31,3.08-.08.96-.15,1.61-.19,1.95-.38,2.6-.78,5.09-1.19,7.47-.46,2.43-.94,5.04-1.44,7.82-.5,2.79-1.03,5.88-1.57,9.3-.54,3.41-1.11,7.4-1.7,11.97-.08.63-.27,1.31-.56,2.04-.29.73-.61,1.1-.94,1.1-.21,0-.41-.14-.6-.41-.19-.27-.33-.6-.41-.97-.08-.25-.15-.69-.19-1.32-.04-.63-.07-1.32-.09-2.07-.02-.75-.04-1.54-.06-2.35-.02-.82-.03-1.54-.03-2.17,0-.67,0-1.47.03-2.39.02-.92.05-1.85.09-2.8.04-.94.08-1.83.13-2.67.04-.84.08-1.53.13-2.07l-.5-.25c-10.89,14.41-21.76,26.76-32.63,37.06s-21.73,18.75-32.6,25.34c-10.87,6.59-21.73,11.45-32.6,14.57-10.87,3.12-21.72,4.68-32.57,4.68-6.45,0-12.71-.59-18.78-1.76-6.07-1.17-11.78-2.95-17.12-5.34s-10.23-5.37-14.67-8.95c-4.44-3.58-8.25-7.77-11.43-12.56-3.18-4.79-5.66-10.2-7.44-16.21-1.78-6.01-2.67-12.63-2.67-19.88,0-5.44.59-10.78,1.76-16.02,1.17-5.23,2.99-10.36,5.46-15.39,2.47-5.02,5.62-9.92,9.45-14.7,3.83-4.77,8.41-9.42,13.72-13.94,3.98-3.35,7.38-5.8,10.21-7.35,2.83-1.55,4.66-2.32,5.5-2.32.33,0,.63.03.88.09.25.06.38.2.38.41Z"/>
      <path class="cls-1" d="M221.72,58.1c.88-2.51,1.78-5.07,2.7-7.66.88-2.6,1.86-5.32,2.95-8.17h.5c3.22,7.29,5.98,14.66,8.26,22.11,2.28,7.45,4.18,15.07,5.68,22.86,1.47,7.79,3.11,15.09,4.93,21.89,1.82,6.8,3.74,12.82,5.75,18.06l-1.26,5.28c-.96,0-2.01-.37-3.14-1.1-1.13-.73-2.32-2.11-3.58-4.15-1.26-2.03-2.52-4.84-3.8-8.42-1.28-3.58-2.5-8.24-3.67-13.98-1.38-6.57-3.35-13.73-5.9-21.48-2.55-7.75-5.69-16.16-9.42-25.25Z"/>
      <path class="cls-1" d="M320.08,56.28c-.25,1.13-.68,2.4-1.29,3.8-.61,1.4-1.25,2.73-1.92,3.99-.67,1.26-1.28,2.3-1.82,3.14s-.88,1.26-1.01,1.26c-.75,0-1.84-.36-3.27-1.07-1.42-.71-2.87-1.57-4.33-2.58-1.46-1-2.78-2.05-3.96-3.14-1.17-1.09-1.88-2.01-2.14-2.76,0-.17.11-.54.31-1.13.21-.59.48-1.28.82-2.07.34-.79.72-1.65,1.16-2.58s.88-1.8,1.32-2.64c.44-.84.86-1.58,1.26-2.23.4-.65.74-1.12,1.04-1.41.67.8,1.56,1.64,2.67,2.54s2.29,1.79,3.55,2.67c1.26.88,2.54,1.7,3.86,2.45,1.32.75,2.57,1.34,3.74,1.76ZM316.06,44.22c-.46,0-1.29-.3-2.48-.91-1.19-.61-2.45-1.37-3.77-2.29-1.32-.92-2.56-1.9-3.74-2.95-1.17-1.05-1.95-2.01-2.32-2.89.25-.79.64-1.82,1.16-3.08.52-1.26,1.07-2.48,1.63-3.67.56-1.19,1.12-2.27,1.66-3.24.54-.96.98-1.57,1.32-1.82.54.59,1.3,1.3,2.26,2.14.96.84,2.04,1.66,3.23,2.48,1.19.82,2.44,1.59,3.74,2.32,1.3.73,2.58,1.31,3.83,1.73-.38,1.26-.86,2.6-1.45,4.02-.59,1.42-1.19,2.74-1.82,3.96-.63,1.21-1.23,2.22-1.82,3.01-.59.8-1.07,1.19-1.44,1.19ZM340.05,52.13c-.92,2.26-1.74,4.16-2.45,5.68-.71,1.53-1.32,2.75-1.82,3.67-.5.92-.91,1.58-1.22,1.98-.31.4-.53.6-.66.6-.5,0-1.38-.28-2.64-.85-1.26-.56-2.59-1.3-3.99-2.2-1.4-.9-2.72-1.92-3.96-3.05s-2.06-2.28-2.48-3.45c0-.29.2-.95.6-1.98s.9-2.17,1.51-3.42c.61-1.26,1.25-2.47,1.92-3.64.67-1.17,1.3-2.05,1.88-2.64,1.72,1.97,3.71,3.76,6,5.37,2.28,1.61,4.72,2.92,7.32,3.92Z"/>
      <path class="cls-1" d="M335.53,113.06c-1.13,0-2.2-.25-3.2-.75-1-.5-1.86-1.38-2.58-2.64h-.5c-2.97,5.07-6.05,8.97-9.23,11.71-3.18,2.74-6.39,4.11-9.61,4.11-1.47,0-2.79-.25-3.96-.75-1.17-.5-2.28-1.07-3.33-1.7-1.05-.63-2.04-1.19-2.98-1.7-.94-.5-1.87-.75-2.79-.75-.71,0-1.34.37-1.88,1.1s-1.1,1.71-1.66,2.92c-.57,1.21-1.16,2.62-1.79,4.21-.63,1.59-1.38,3.24-2.26,4.93-.88,1.7-1.91,3.39-3.08,5.09-1.17,1.7-2.55,3.28-4.15,4.74-2.47,2.22-5.05,3.84-7.73,4.87-2.68,1.03-5.51,1.54-8.48,1.54-2.6,0-5.09-.5-7.47-1.51s-4.62-2.51-6.69-4.52c-2.07-2.01-3.98-4.55-5.72-7.63-1.74-3.08-3.24-6.69-4.49-10.83-.84-2.85-1.61-5.73-2.32-8.64-.71-2.91-1.32-5.62-1.82-8.13-.5-2.51-.9-4.71-1.19-6.6-.29-1.88-.44-3.22-.44-4.02,0-1.97.12-3.89.38-5.78.25-1.88.63-3.64,1.13-5.28h.75c1.26,1.47,2.24,2.84,2.95,4.11.71,1.28,1.19,2.46,1.44,3.55.13.54.33,1.42.63,2.64.29,1.21.65,2.62,1.07,4.21.42,1.59.88,3.31,1.38,5.15.5,1.84,1.03,3.66,1.57,5.46,1.05,3.6,2.2,6.67,3.45,9.2,1.26,2.53,2.68,4.58,4.27,6.16,1.59,1.57,3.4,2.71,5.43,3.42,2.03.71,4.34,1.07,6.94,1.07,1.59,0,3.28-.36,5.06-1.07,1.78-.71,3.54-1.7,5.28-2.95,1.74-1.26,3.4-2.77,4.99-4.55,1.59-1.78,3.01-3.74,4.27-5.87.92-1.51,1.82-3.22,2.7-5.15.84-1.97,1.69-3.81,2.54-5.53.86-1.72,1.74-3.17,2.64-4.37s1.83-1.79,2.8-1.79c.79,0,1.59.36,2.39,1.07.79.75,1.7,1.57,2.7,2.45,1,.88,2.19,1.69,3.55,2.42,1.36.73,3,1.1,4.93,1.1,1.46,0,3.01-.46,4.65-1.38,1.63-.92,3.39-2.39,5.28-4.4.79-.88,1.5-1.87,2.1-2.98.61-1.11,1.16-2.29,1.66-3.55.5-1.26.95-2.55,1.35-3.89.4-1.34.79-2.68,1.16-4.02.33-1.13.67-2.04,1-2.73.33-.69.79-1.04,1.38-1.04s.98.21,1.19.63c.21.42.31.88.31,1.38,0,.75-.06,1.53-.19,2.32-.13.84-.19,1.57-.19,2.2,0,1.84.46,3.14,1.38,3.89.92.75,2.18,1.13,3.77,1.13,1.34,0,2.73-.32,4.18-.97,1.44-.65,2.98-1.79,4.62-3.42,1-1,1.82-2,2.45-2.98.63-.98.94-2.04.94-3.17,0-1.34-.18-2.78-.53-4.33-.36-1.55-1.02-3.33-1.98-5.34.75-1.84,1.66-3.84,2.73-6,1.07-2.16,2.33-4.47,3.8-6.94h.38c.71,2.47,1.27,4.85,1.66,7.13.4,2.28.6,4.47.6,6.56,0,2.51-.29,4.69-.88,6.53-.59,1.88-1.01,3.48-1.26,4.77-.84,4.44-1.93,8.28-3.27,11.53-1.34,3.25-2.79,5.94-4.37,8.07s-3.2,3.72-4.9,4.74c-1.7,1.03-3.34,1.54-4.93,1.54Z"/>
      <path class="cls-1" d="M429.12,92.52c.63,0,1.01.16,1.16.47.15.31.22.66.22,1.04,0,.63-.09,1.32-.28,2.07s-.41,1.53-.66,2.32c-.25.84-.47,1.69-.66,2.54s-.28,1.69-.28,2.48c0,1.63.41,2.92,1.22,3.86.82.94,1.89,1.7,3.24,2.26,1.34.57,2.89,1.02,4.65,1.35,1.72.38,3.49.76,5.31,1.16,1.82.4,3.63.91,5.43,1.54,1.8.63,3.43,1.51,4.9,2.64,2.51,2.01,4.19,4.33,5.03,6.97.84,2.64,1.26,5.51,1.26,8.61,0,2.39-.17,5.18-.5,8.38-.34,3.2-.75,6.73-1.26,10.58-.71,5.36-2,10.4-3.86,15.14-1.86,4.73-4.14,9.1-6.82,13.1-2.68,4-5.68,7.59-9.01,10.77-3.33,3.18-6.81,5.88-10.43,8.1-3.62,2.22-7.31,3.92-11.05,5.12-3.75,1.19-7.36,1.79-10.83,1.79-5.23,0-9.8-1.02-13.69-3.05-3.89-2.03-7.15-4.76-9.77-8.2-2.62-3.43-4.58-7.4-5.87-11.9-1.3-4.5-1.95-9.22-1.95-14.16,0-4.19.32-8.22.97-12.09.65-3.87,1.65-7.67,3.01-11.4,1.36-3.73,3.1-7.42,5.21-11.09,2.11-3.66,4.66-7.42,7.63-11.27,1.42-1.8,2.67-3.3,3.74-4.49,1.07-1.19,2-2.16,2.79-2.89.79-.73,1.45-1.26,1.95-1.57.5-.31.9-.47,1.19-.47.25,0,.5.04.75.12.25.08.38.25.38.5,0,.59-.25,1.13-.75,1.63-3.98,4.56-7.24,8.87-9.8,12.91-2.55,4.04-4.58,7.84-6.06,11.4-1.49,3.56-2.52,6.89-3.11,9.99-.59,3.1-.88,5.99-.88,8.67,0,4.61.63,8.63,1.88,12.06,1.26,3.43,2.97,6.28,5.15,8.54,2.18,2.26,4.74,3.96,7.69,5.09s6.12,1.7,9.52,1.7c3.68,0,7.44-.67,11.27-2.01,3.83-1.34,7.54-3.11,11.12-5.31,3.58-2.2,6.94-4.72,10.08-7.57,3.14-2.85,5.87-5.77,8.2-8.76,2.32-2.99,4.17-5.97,5.53-8.92,1.36-2.95,2.04-5.62,2.04-8.01,0-1.55-.26-3-.79-4.37-.52-1.36-1.38-2.61-2.58-3.74-1.19-1.13-2.79-2.18-4.8-3.14-2.01-.96-4.48-1.86-7.41-2.7-2.6-.54-4.92-1.22-6.97-2.04s-3.79-1.86-5.21-3.14c-1.42-1.28-2.51-2.87-3.27-4.77-.75-1.91-1.13-4.24-1.13-7,0-1.72.19-3.6.56-5.65.38-2.05.98-4.31,1.82-6.78.96-2.72,1.84-4.8,2.64-6.25.79-1.44,1.51-2.17,2.14-2.17Z"/>
      <path class="cls-1" d="M422.46,10.3c-.34,1.05-.83,2.31-1.48,3.8-.65,1.49-1.33,2.92-2.04,4.3-.71,1.38-1.38,2.55-2.01,3.52-.63.96-1.09,1.44-1.38,1.44-.46,0-1.32-.29-2.58-.88-1.26-.59-2.63-1.35-4.11-2.29-1.49-.94-2.92-2.03-4.3-3.27-1.38-1.23-2.41-2.52-3.08-3.86,0-.12.1-.5.31-1.13.21-.63.48-1.36.82-2.2.38-.84.78-1.76,1.19-2.76.42-1,.86-1.97,1.32-2.89.46-.92.91-1.75,1.35-2.48.44-.73.83-1.27,1.16-1.6,1.3,1.34,2.62,2.55,3.96,3.64s2.66,2.07,3.96,2.95c1.3.88,2.53,1.62,3.71,2.23,1.17.61,2.24,1.06,3.2,1.35v.12Z"/>
      <path class="cls-1" d="M423.97,108.79c-.21,0-.38-.08-.5-.25-.12-.17-.22-.37-.28-.6-.06-.23-.09-.46-.09-.69v-.6c0-.42.11-1.13.31-2.14.21-1,.5-2.16.88-3.45.38-1.3.83-2.68,1.35-4.15.52-1.46,1.1-2.91,1.73-4.33.5-1.17,1.17-2.6,2.01-4.27.84-1.67,1.65-3.39,2.45-5.15.79-1.76,1.49-3.43,2.07-5.02.59-1.59.88-2.89.88-3.89,0-.88-.26-1.89-.79-3.05-.52-1.15-1.39-2.27-2.61-3.36h-.38c-1.63,1.72-3.41,2.98-5.34,3.8-1.92.82-3.83,1.22-5.71,1.22-1.59,0-3.05-.24-4.37-.72-1.32-.48-2.45-1.17-3.39-2.07-.94-.9-1.68-1.98-2.23-3.23-.54-1.26-.82-2.68-.82-4.27,0-1.88.18-4.34.53-7.38.36-3.04.89-6.65,1.6-10.83.46-2.72,1.49-4.89,3.08-6.5,1.59-1.61,3.83-2.42,6.72-2.42,1.63,0,3.25.44,4.84,1.32,1.59.88,3.09,2.07,4.49,3.58,1.4,1.51,2.69,3.27,3.86,5.28,1.17,2.01,2.19,4.18,3.05,6.5.86,2.32,1.53,4.73,2.01,7.22.48,2.49.72,4.95.72,7.38s-.04,4.74-.13,7.19c-.08,2.45-.29,4.62-.63,6.5-.42,2.55-1.17,4.96-2.26,7.22-1.09,2.26-2.28,4.42-3.58,6.47-1.3,2.05-2.58,4.02-3.83,5.9-1.26,1.88-2.26,3.73-3.01,5.53-.33.75-.7,1.49-1.1,2.2-.4.71-.91,1.07-1.54,1.07Z"/>
      <path class="cls-1" d="M501.73,147.79c-.75.59-1.53,1.02-2.32,1.29-.8.27-1.53.41-2.2.41-3.31,0-6.41-.79-9.3-2.36s-5.42-3.61-7.6-6.12c-2.14-2.43-3.86-4.88-5.18-7.35-1.32-2.47-2.43-5.08-3.33-7.82-.9-2.74-1.69-5.68-2.36-8.82-.67-3.1-1.41-6.51-2.23-10.24-.82-3.73-1.82-7.83-3.01-12.31s-2.75-9.44-4.68-14.89c-1.63-4.65-3.12-8.67-4.46-12.06-1.38-3.39-2.58-6.53-3.58-9.42.88-2.51,1.78-5.07,2.7-7.66.88-2.6,1.86-5.32,2.95-8.17h.5c1.34,3.1,2.61,6.19,3.8,9.26,1.19,3.08,2.36,6.35,3.49,9.83,1.42,4.36,2.62,8.53,3.58,12.53.96,4,1.8,7.83,2.51,11.49.71,3.66,1.38,7.17,2.01,10.52.59,3.39,1.27,6.65,2.04,9.77.77,3.12,1.7,6.11,2.76,8.98s2.42,5.64,4.05,8.32c1.21,2.01,2.45,3.69,3.71,5.02,1.26,1.34,2.49,2.52,3.71,3.55,1.21,1.03,2.41,1.98,3.58,2.86,1.17.88,2.29,1.86,3.36,2.95s2.06,2.39,2.98,3.89c.92,1.51,1.76,3.39,2.51,5.65v.88Z"/>
      <path class="cls-1" d="M468.19,86.68c1.26,1.47,2.24,2.84,2.95,4.11.71,1.28,1.19,2.46,1.44,3.55.88,3.56,1.74,6.92,2.58,10.08s1.7,6.04,2.58,8.64h.5c.67-1.63,1.33-3.66,1.98-6.09.65-2.43,1.33-5.46,2.04-9.11,1.47-1.3,3.08-2.55,4.84-3.77s3.59-2.27,5.5-3.17c1.9-.9,3.85-1.62,5.84-2.17,1.99-.54,3.97-.82,5.94-.82,2.8,0,5.32.47,7.54,1.41,2.22.94,4.11,2.26,5.68,3.96,1.57,1.7,2.77,3.71,3.61,6.03.84,2.32,1.26,4.89,1.26,7.69,0,2.09-.15,4.15-.44,6.16-.33,2.01-.61,4.06-.82,6.16-.34,3.94-.94,7.41-1.82,10.43-.88,3.01-1.95,5.65-3.2,7.91-1.26,2.26-2.65,4.17-4.18,5.72-1.53,1.55-3.11,2.8-4.74,3.77-1.63.96-3.27,1.65-4.9,2.07-1.63.42-3.18.63-4.65.63-5.32,0-10.21-2.38-14.67-7.13-4.46-4.75-8.24-11.84-11.34-21.26-.79-2.3-1.54-4.64-2.23-7-.69-2.37-1.3-4.62-1.82-6.75-.52-2.13-.94-4.06-1.26-5.78-.31-1.72-.47-3.12-.47-4.21,0-1.97.12-3.89.38-5.78.25-1.88.63-3.64,1.13-5.28h.75ZM478.74,90.7c.46-2.39.9-4.73,1.32-7.03.42-2.3.69-4.4.82-6.28.04-.67.19-1.26.44-1.76.25-.5.65-1.03,1.19-1.57s1.23-1.15,2.07-1.82c.79-.67,1.78-1.51,2.95-2.51,6.7-5.95,12.87-11.85,18.5-17.71,5.63-5.86,10.81-11.7,15.55-17.52,4.73-5.82,9.03-11.6,12.91-17.33,3.87-5.74,7.4-11.45,10.58-17.15l.5.25c-.29,3.23-.64,6.04-1.04,8.45-.4,2.41-.88,4.56-1.44,6.47s-1.19,3.61-1.88,5.12c-.69,1.51-1.46,2.95-2.29,4.33-3.18,5.28-6.49,10.36-9.92,15.26-3.43,4.9-6.92,9.55-10.46,13.94-3.54,4.4-7.09,8.51-10.65,12.34-3.56,3.83-7.03,7.33-10.4,10.49-3.37,3.16-6.61,5.95-9.7,8.35-3.1,2.41-5.99,4.39-8.67,5.94l-.38-.25ZM478.99,115.57c1.26,3.14,2.63,5.8,4.11,7.98,1.49,2.18,3.08,3.94,4.77,5.28,1.7,1.34,3.49,2.31,5.37,2.92,1.88.61,3.87.91,5.97.91s4.09-.49,6.25-1.48c2.16-.98,4.11-2.26,5.87-3.83s3.21-3.35,4.37-5.34c1.15-1.99,1.73-3.97,1.73-5.94s-.4-3.67-1.19-5.21c-.8-1.55-1.86-2.86-3.2-3.92-1.34-1.07-2.9-1.88-4.68-2.45-1.78-.57-3.65-.85-5.62-.85-2.14,0-4.38.36-6.72,1.07-2.35.71-4.6,1.63-6.75,2.76-2.16,1.13-4.15,2.41-5.97,3.83-1.82,1.42-3.26,2.85-4.3,4.27Z"/>
    </g>
  </g>
</svg>